<svg xmlns="http://www.w3.org/2000/svg" viewBox="0 0 31.93 41.15"><defs><style>.cls-1{fill:#ef7955;}</style></defs><title>cpu</title><g id="Layer_2" data-name="Layer 2"><g id="Layer_1-2" data-name="Layer 1"><path class="cls-1" d="M29.15,0H21.52a.59.59,0,0,0-.23.05,2.5,2.5,0,0,0-.47,0h-18A2.76,2.76,0,0,0,0,2.74V38.4a2.77,2.77,0,0,0,2.78,2.75H29.15a2.77,2.77,0,0,0,2.78-2.75V2.74A2.76,2.76,0,0,0,29.15,0ZM22.21,38.4a1.38,1.38,0,0,1-1.39,1.37h-18A1.38,1.38,0,0,1,1.39,38.4V2.74A1.38,1.38,0,0,1,2.78,1.37h18a1.38,1.38,0,0,1,1.39,1.37V38.4Zm8.33,0a1.38,1.38,0,0,1-1.39,1.37H23.21a2.63,2.63,0,0,0,.39-1.37V2.74a2.68,2.68,0,0,0-.39-1.37h5.94a1.38,1.38,0,0,1,1.39,1.37V38.4Z"/><path class="cls-1" d="M19.44,2.74H4.16A1.38,1.38,0,0,0,2.78,4.11V37A1.37,1.37,0,0,0,4.16,38.4H19.44A1.37,1.37,0,0,0,20.82,37V4.11A1.38,1.38,0,0,0,19.44,2.74Zm0,34.29H4.16V20.57H19.44Zm0-17.83H4.16V15.09H7.64v1.37A1.37,1.37,0,0,0,9,17.83h5.56A1.37,1.37,0,0,0,16,16.46V15.09h3.48V19.2ZM9,16.46V15.09h5.56v1.37Zm10.42-2.74H4.16V9.6H19.44v4.12Zm0-5.49H4.16V4.11H19.44V8.23Z"/><path class="cls-1" d="M11.8,28.8a3.43,3.43,0,1,0-3.47-3.43A3.44,3.44,0,0,0,11.8,28.8Zm0-5.48a2.06,2.06,0,1,1-2.08,2.05A2.07,2.07,0,0,1,11.8,23.32Z"/><path class="cls-1" d="M12.18,31a.35.35,0,0,0-.12-.07l-.13,0a.71.71,0,0,0-.62.19.68.68,0,0,0,.49,1.17h.13l.13,0a.35.35,0,0,0,.12-.07l.11-.08a.69.69,0,0,0,0-1Z"/></g></g></svg>