<svg xmlns="http://www.w3.org/2000/svg" viewBox="0 0 57.89 52.44"><defs><style>.cls-1{fill:#315ae0;}</style></defs><title>hosts</title><g id="Layer_2" data-name="Layer 2"><g id="Layer_1-2" data-name="Layer 1"><path class="cls-1" d="M16.4,46.61h1.93v1.94H16.4Z"/><path class="cls-1" d="M20.26,46.61h1.93v1.94H20.26Z"/><path class="cls-1" d="M16.4,35h1.93V36.9H16.4Z"/><path class="cls-1" d="M20.26,35h1.93V36.9H20.26Z"/><path class="cls-1" d="M45.35,11.65a11.62,11.62,0,0,0-1.67.12A16.38,16.38,0,0,0,11.6,15.58c-.33,0-.66,0-1,0a10.68,10.68,0,0,0,0,21.36h1.93v2.91a1,1,0,0,0,1,1h1.93v1.95H13.51a1,1,0,0,0-1,1v7.77a1,1,0,0,0,1,1H44.38a1,1,0,0,0,1-1V43.7a1,1,0,0,0-1-1H42.45V40.78h1.93a1,1,0,0,0,1-1V36.9a12.63,12.63,0,0,0,0-25.25Zm-1.93,33v5.82H14.47V44.67Zm-26-1.94V40.78H40.52v1.95Zm26.05-3.89H14.47V33h29Zm4.1-4.11a10.59,10.59,0,0,1-2.17.23V32.05a1,1,0,0,0-1-1H34.73V22.34H43.6a2.92,2.92,0,1,0,0-1.95H33.77a1,1,0,0,0-1,1v9.71H28V12.63h4a2.88,2.88,0,0,0,3.69,1.77,2.91,2.91,0,0,0-1.93-5.49A2.89,2.89,0,0,0,32,10.68H27a1,1,0,0,0-1,1V31.07H21.23V24.28a1,1,0,0,0-1-1h-5a2.88,2.88,0,0,0-3.69-1.78A2.92,2.92,0,0,0,9.8,25.25a2.89,2.89,0,0,0,5.46,0h4v5.82H13.51a1,1,0,0,0-1,1V35H10.61a8.74,8.74,0,0,1,0-17.48,8.52,8.52,0,0,1,1.75.18,1,1,0,0,0,1.16-1s0-.16,0-.18A14.46,14.46,0,0,1,42,13.1a1,1,0,0,0,1.13.72,10.68,10.68,0,0,1,4.35,20.91ZM45.35,21.36a1,1,0,1,1,1,1A1,1,0,0,1,45.35,21.36ZM33.77,11.65a1,1,0,1,1,1,1A1,1,0,0,1,33.77,11.65ZM13.51,24.28a1,1,0,1,1-1-1A1,1,0,0,1,13.51,24.28Z"/></g></g></svg>