<svg xmlns="http://www.w3.org/2000/svg" viewBox="0 0 52.41 52.46"><defs><style>.cls-1{fill:#ec9124;}</style></defs><title>pending req</title><g id="Layer_2" data-name="Layer 2"><g id="Layer_1-2" data-name="Layer 1"><path class="cls-1" d="M24.16,36.57a1,1,0,0,0-1.74.72,1,1,0,0,0,.3.73,1,1,0,0,0,1.44,0,1,1,0,0,0,.3-.73A1,1,0,0,0,24.16,36.57Z"/><path class="cls-1" d="M45.85,24.46a1,1,0,0,0-1,1V33H27.23V30.46a7.66,7.66,0,0,0-6.7-7.59,5.29,5.29,0,0,0,1.19-3.36V12.3a1,1,0,0,0-1-1H15.34A4.33,4.33,0,0,0,11,15.6v3.91a5.35,5.35,0,0,0,1.19,3.36,7.65,7.65,0,0,0-6.69,7.59V33H2.05V8.37a.8.8,0,0,1,.8-.79H24.12a1,1,0,1,0,0-2H2.85A2.85,2.85,0,0,0,0,8.37V38.75A2.86,2.86,0,0,0,2.85,41.6H18.42v4.73a5.13,5.13,0,0,0-4.6,5.1,1,1,0,0,0,1,1H32a1,1,0,0,0,1-1,5.13,5.13,0,0,0-4.6-5.1V41.6H44a2.86,2.86,0,0,0,2.85-2.85V25.49A1,1,0,0,0,45.85,24.46ZM13.08,15.6a2.27,2.27,0,0,1,2.26-2.27h4.34V15a1.48,1.48,0,0,1-1.48,1.48H13.08Zm0,2.89H18.2a3.49,3.49,0,0,0,1.48-.33v1.35h0a3.3,3.3,0,0,1-6.6,0Zm4.49,6.37-1.19,1.2-1.2-1.2Zm-10,5.6a5.61,5.61,0,0,1,4.78-5.54l3.3,3.31a1,1,0,0,0,1.45,0l3.31-3.31a5.61,5.61,0,0,1,4.77,5.54V33H7.57ZM30.84,50.41H16a3.07,3.07,0,0,1,2.9-2.06h9A3.08,3.08,0,0,1,30.84,50.41ZM20.47,46.3V41.6h5.94v4.7Zm24.36-7.55a.8.8,0,0,1-.8.8H2.85a.8.8,0,0,1-.8-.8V35H44.83Z"/><path class="cls-1" d="M45.85,4.82H38.18a1,1,0,1,0,0,2h7.67a1,1,0,1,0,0-2Z"/><path class="cls-1" d="M34.71,5.12a1,1,0,0,0-.73-.3,1,1,0,0,0-.72,1.74,1,1,0,0,0,.72.3,1,1,0,0,0,.73-.3,1,1,0,0,0,0-1.44Z"/><path class="cls-1" d="M45.85,9.32H34a1,1,0,0,0,0,2H45.85a1,1,0,1,0,0-2Z"/><path class="cls-1" d="M45.85,13.83H34a1,1,0,0,0,0,2.05H45.85a1,1,0,1,0,0-2.05Z"/><path class="cls-1" d="M47.29,0H32.55a5.13,5.13,0,0,0-5.12,5.12v11A5.14,5.14,0,0,0,32,21.18v2.66a1,1,0,0,0,.63.95,1.07,1.07,0,0,0,.39.07,1,1,0,0,0,.73-.3l3.35-3.35H47.29a5.13,5.13,0,0,0,5.12-5.12v-11A5.13,5.13,0,0,0,47.29,0Zm3.07,16.09a3.08,3.08,0,0,1-3.07,3.07H36.64a1,1,0,0,0-.72.3L34,21.37V20.18a1,1,0,0,0-1-1h-.44a3.08,3.08,0,0,1-3.07-3.07v-11a3.08,3.08,0,0,1,3.07-3.07H47.29a3.08,3.08,0,0,1,3.07,3.07Z"/></g></g></svg>