<svg xmlns="http://www.w3.org/2000/svg" viewBox="0 0 31.93 23.52"><defs><style>.cls-1{fill:#fff;}</style></defs><title>users</title><g id="Layer_2" data-name="Layer 2"><g id="Layer_1-2" data-name="Layer 1"><path class="cls-1" d="M31.93,23.52s0-7.81-.31-8.26c-.39-.66-1.31-1.12-3-1.83s-2.24-1.3-2.24-2.57c0-.76.52-.51.75-1.91.09-.59.55,0,.64-1.34,0-.53-.25-.66-.25-.66s.12-.78.17-1.38A2.54,2.54,0,0,0,25,2.88a2.54,2.54,0,0,0-2.74,2.69c.05.6.18,1.38.18,1.38s-.25.13-.25.66c.09,1.33.54.75.64,1.34.23,1.4.74,1.15.74,1.91a2.07,2.07,0,0,1-.94,1.91c3.7,1.84,4.2,2.22,4.2,3.87v6.88ZM20.75,14.07c-2.26-.94-3-1.73-3-3.43,0-1,.69-.68,1-2.55.12-.78.73,0,.85-1.78,0-.71-.33-.88-.33-.88s.17-1,.23-1.85A3.37,3.37,0,0,0,15.87,0a3.38,3.38,0,0,0-3.65,3.58c.07.81.23,1.85.23,1.85s-.33.17-.33.88c.12,1.77.73,1,.85,1.78.31,1.87,1,1.53,1,2.55,0,1.7-.72,2.49-3,3.43-.69.29-3.35.73-3.35,1.8v7.65H25V16.91C25,15.94,23,15,20.75,14.07Z"/><path class="cls-1" d="M0,23.52s.05-7.81.32-8.26c.4-.67,1.33-1.12,3.07-1.83s2.29-1.3,2.29-2.58c0-.76-.53-.51-.76-1.91-.1-.59-.57,0-.65-1.34,0-.53.25-.66.25-.66s-.13-.78-.18-1.39A2.56,2.56,0,0,1,7.13,2.86a2.57,2.57,0,0,1,2.8,2.69c0,.61-.18,1.39-.18,1.39s.25.13.25.66c-.09,1.33-.56.75-.65,1.34-.23,1.4-.76,1.15-.76,1.91a2,2,0,0,0,1,1.91C5.77,14.61,5.26,15,5.26,16.63v6.89Z"/></g></g></svg>