<svg xmlns="http://www.w3.org/2000/svg" viewBox="0 0 19.65 17.34"><defs><style>.cls-1,.cls-3{fill:#2e72fe;}.cls-2{fill:#fff;}.cls-2,.cls-3{fill-rule:evenodd;}</style></defs><title>Asset 6</title><g id="Layer_2" data-name="Layer 2"><g id="Layer_1-2" data-name="Layer 1"><path class="cls-1" d="M7.88,10.66h-1a.64.64,0,0,1,0-1.27H8.62a.43.43,0,0,0,0-.85H7.81V8A.42.42,0,1,0,7,8v.59H6.9a1.49,1.49,0,0,0,0,3h1a.64.64,0,0,1,.64.64.64.64,0,0,1-.64.64H6.13a.43.43,0,0,0,0,.85H7v.6a.43.43,0,1,0,.85,0v-.6H7.9a1.49,1.49,0,0,0,0-3Z"/><path class="cls-1" d="M13.77,9.7a12.3,12.3,0,0,0-1.84-2.94A13.65,13.65,0,0,0,9.57,4.52l1.81-3.34a.41.41,0,0,0-.08-.5A2.1,2.1,0,0,0,9.79,0,3.61,3.61,0,0,0,8.41.36a2.52,2.52,0,0,1-.86.26.45.45,0,0,1-.2,0A6.48,6.48,0,0,0,5.24.08a2.85,2.85,0,0,0-2.13,1,.42.42,0,0,0,0,.53L5,4.55A13.38,13.38,0,0,0,2.68,6.76,12.62,12.62,0,0,0,.84,9.7a10,10,0,0,0-.84,4A3.29,3.29,0,0,0,3.29,17h8a3.29,3.29,0,0,0,3.29-3.29A10,10,0,0,0,13.77,9.7ZM4,1.43A1.87,1.87,0,0,1,5.24.93a5.75,5.75,0,0,1,1.82.44,1.33,1.33,0,0,0,.49.09,3.15,3.15,0,0,0,1.19-.32,2.89,2.89,0,0,1,1-.3,1.15,1.15,0,0,1,.69.23L8.77,4.22h-3Zm7.36,14.71h-8A2.44,2.44,0,0,1,.85,13.7,9.88,9.88,0,0,1,3.31,7.32a13.63,13.63,0,0,1,2.4-2.25H8.89a12.94,12.94,0,0,1,2.4,2.25,9.83,9.83,0,0,1,2.46,6.38A2.43,2.43,0,0,1,11.32,16.14Z"/><path class="cls-2" d="M15.13,8.93a4.1,4.1,0,0,1,4.17,4A4.17,4.17,0,0,1,11,13,4.1,4.1,0,0,1,15.13,8.93Z"/><path class="cls-1" d="M15.14,17.34A4.46,4.46,0,0,1,10.62,13a4.52,4.52,0,0,1,9,0A4.45,4.45,0,0,1,15.14,17.34Zm0-8.06A3.75,3.75,0,0,0,11.32,13,3.82,3.82,0,0,0,19,13,3.75,3.75,0,0,0,15.14,9.28Z"/><path class="cls-3" d="M14.73,14.67a.16.16,0,0,1-.22,0l0-.05h0l-.05-.06-.22-.24h0l-1-1.1a.17.17,0,0,1,0-.23l.32-.34a.16.16,0,0,1,.22,0l.93,1,2-2.06a.13.13,0,0,1,.21,0l.33.34a.17.17,0,0,1,0,.23Z"/></g></g></svg>