<svg xmlns="http://www.w3.org/2000/svg" viewBox="0 0 42.95 42.97"><defs><style>.cls-1{fill:#fff;}</style></defs><title>issues</title><g id="Layer_2" data-name="Layer 2"><g id="Layer_1-2" data-name="Layer 1"><path class="cls-1" d="M21.48,0A21.49,21.49,0,1,0,43,21.49,21.49,21.49,0,0,0,21.48,0ZM26,33.3c-1.11.44-2,.77-2.65,1a6.94,6.94,0,0,1-2.29.34,4.58,4.58,0,0,1-3.12-1,3.13,3.13,0,0,1-1.11-2.48,8.06,8.06,0,0,1,.08-1.2,13,13,0,0,1,.26-1.38l1.39-4.89c.12-.48.23-.92.31-1.34a6.08,6.08,0,0,0,.12-1.15,1.79,1.79,0,0,0-.38-1.3,2.17,2.17,0,0,0-1.48-.37,3.87,3.87,0,0,0-1.1.17c-.37.11-.7.22-1,.32l.36-1.51c.91-.37,1.77-.68,2.6-1a7.86,7.86,0,0,1,2.35-.39,4.46,4.46,0,0,1,3.07,1,3.2,3.2,0,0,1,1.08,2.5c0,.22,0,.59-.07,1.13a7.23,7.23,0,0,1-.28,1.47l-1.37,4.88a12,12,0,0,0-.31,1.33,7.09,7.09,0,0,0-.13,1.15,1.61,1.61,0,0,0,.44,1.32,2.44,2.44,0,0,0,1.5.35,4.31,4.31,0,0,0,1.14-.18,7.08,7.08,0,0,0,.92-.3ZM25.7,13.51a3.26,3.26,0,0,1-2.31.9,3.32,3.32,0,0,1-2.33-.9,2.82,2.82,0,0,1-1-2.17,2.89,2.89,0,0,1,1-2.17,3.29,3.29,0,0,1,2.33-.91,3.22,3.22,0,0,1,2.31.91,2.85,2.85,0,0,1,1,2.17A2.82,2.82,0,0,1,25.7,13.51Z"/></g></g></svg>