<svg xmlns="http://www.w3.org/2000/svg" viewBox="0 0 26.45 32"><defs><style>.cls-1{fill:#fff;fill-rule:evenodd;}</style></defs><title>activities</title><g id="Layer_2" data-name="Layer 2"><g id="Layer_1-2" data-name="Layer 1"><path class="cls-1" d="M25.4,4.13H1.06a1,1,0,1,1,0-2.07H12.2V1a1.06,1.06,0,0,1,2.11,0v1H25.4a1,1,0,1,1,0,2.07Zm0,16.52H1.06V5.16H25.4ZM4.23,12.42a4.24,4.24,0,0,0,8.47,0H8.46V8.28A4.19,4.19,0,0,0,4.23,12.42ZM15.9,8.26H14.84v1H15.9Zm0,2.06H14.84v1H15.9Zm0,2.07H14.84v1H15.9Zm0,2.06H14.84v1H15.9Zm0,2.07H14.84v1H15.9Zm6.33-8.26H17v1h5.28Zm0,2.06H17v1h5.28Zm0,2.07H17v1h5.28Zm0,2.06H17v1h5.28Zm0,2.07H17v1h5.28ZM10.35,25.81h2.38V20.65h1.06v5.16h2.34l-2.34-5.16H15.9l4.22,9.29H18l-1.41-3.1H13.79V32H12.73V26.84H9.87l-1.43,3.1H6.33l4.29-9.29h2.11Zm3.44-5.16Zm-1.06,0Z"/></g></g></svg>