<svg xmlns="http://www.w3.org/2000/svg" viewBox="0 0 31.93 28.51"><defs><style>.cls-1{fill:#fff;fill-rule:evenodd;}</style></defs><title>catalogue</title><g id="Layer_2" data-name="Layer 2"><g id="Layer_1-2" data-name="Layer 1"><path class="cls-1" d="M2.06,2.16v23A12.08,12.08,0,0,1,8.76,23a12.06,12.06,0,0,1,6.69,2.09V2.43A11.05,11.05,0,0,0,8.76,0,11.83,11.83,0,0,0,2.06,2.16Z"/><path class="cls-1" d="M16.48,2.16v23a11.77,11.77,0,0,1,13.39,0V2.43A11,11,0,0,0,23.18,0,11.83,11.83,0,0,0,16.48,2.16Z"/><path class="cls-1" d="M0,5.82H1V26.35H13.39v1.08h5.15V26.35H30.9V5.82h1V27.43H19.57l.07,1.08H12.36V27.43H0Z"/></g></g></svg>