<svg xmlns="http://www.w3.org/2000/svg" viewBox="0 0 25.46 32.01"><defs><style>.cls-1{fill:#fff;}</style></defs><title>dashboard</title><g id="Layer_2" data-name="Layer 2"><g id="Layer_1-2" data-name="Layer 1"><path class="cls-1" d="M22,12.58A4,4,0,0,0,19.34,14a1.87,1.87,0,0,1-.27.24V7.83A1.26,1.26,0,0,0,17.8,6.58H11.35c-.08,0-.14,0-.16,0a1.12,1.12,0,0,1,.35-.53A3.92,3.92,0,0,0,13,3.42a3.46,3.46,0,0,0-6.92,0A3.92,3.92,0,0,0,7.51,6.05a2.57,2.57,0,0,1,.37.47.26.26,0,0,1-.18.06H1.27A1.26,1.26,0,0,0,0,7.83V14.2a1.27,1.27,0,0,0,1.31,1.25,2.29,2.29,0,0,0,1.59-.74,3,3,0,0,1,1.81-1,2.33,2.33,0,1,1,0,4.65,2.89,2.89,0,0,1-1.81-1,2.28,2.28,0,0,0-1.63-.75A1.27,1.27,0,0,0,0,17.81v6.37a1.26,1.26,0,0,0,1.27,1.25H7.71c.08,0,.14,0,.15,0a1.11,1.11,0,0,1-.34.52,3.92,3.92,0,0,0-1.46,2.64,3.46,3.46,0,0,0,6.92,0A4,4,0,0,0,11.55,26a1.92,1.92,0,0,1-.37-.48.25.25,0,0,1,.18-.05H17.8a1.26,1.26,0,0,0,1.27-1.25V17.75a1.46,1.46,0,0,1,.27.24A4,4,0,0,0,22,19.42a3.42,3.42,0,1,0,0-6.84Z"/></g></g></svg>