<svg xmlns="http://www.w3.org/2000/svg" viewBox="0 0 31.94 32"><defs><style>.cls-1{fill:#fff;}</style></defs><title>help</title><g id="Layer_2" data-name="Layer 2"><g id="Layer_1-2" data-name="Layer 1"><path class="cls-1" d="M16,0a16,16,0,1,0,16,16A15.94,15.94,0,0,0,16,0Zm1.45,24.73a.68.68,0,0,1-.72.72H15.24a.68.68,0,0,1-.72-.72V23.27a.68.68,0,0,1,.72-.72H16.7a.68.68,0,0,1,.72.72Zm2-6.48c-1,.88-1.74,1.46-2,2.26a.7.7,0,0,1-.72.58H15.24a.7.7,0,0,1-.72-.8c.29-2.11,1.81-3.27,3.05-4.29s2-1.67,2-2.91a3.63,3.63,0,1,0-7.26,0v.44a.67.67,0,0,1-.51.8l-1.38.43a.72.72,0,0,1-.94-.58,5.71,5.71,0,0,1-.07-1.09,6.53,6.53,0,1,1,13.06,0C22.5,15.78,20.76,17.16,19.38,18.25Z"/></g></g></svg>