<svg xmlns="http://www.w3.org/2000/svg" viewBox="0 0 23.96 32"><defs><style>.cls-1{fill:#fff;fill-rule:evenodd;}</style></defs><title>Orders</title><g id="Layer_2" data-name="Layer 2"><g id="Layer_1-2" data-name="Layer 1"><path class="cls-1" d="M22,32H2a2,2,0,0,1-2-2V5A2,2,0,0,1,2,3H8V5H3A1,1,0,0,0,2,6V29a1,1,0,0,0,1,1H21a1,1,0,0,0,1-1V6a1,1,0,0,0-1-1H16V3h6a2,2,0,0,1,2,2V30A2,2,0,0,1,22,32ZM21,6V29H3V6H4v4H20V6ZM7,13H6v1H7Zm0,2H6v1H7Zm0,2H6v1H7Zm0,2H6v1H7Zm0,2H6v1H7Zm0,2H6v1H7Zm0,2H6v1H7ZM18,13H8v1H18Zm0,2H8v1H18Zm0,2H8v1H18Zm0,2H8v1H18Zm0,2H8v1H18Zm0,2H8v1H18Zm0,2H8v1H18ZM18,6a1,1,0,0,1,1,1V9H5V7A1,1,0,0,1,6,6H9s0-1.28,0-2.9A3,3,0,0,1,12,0a3.12,3.12,0,0,1,3,3.1C15,4.85,15,6,15,6ZM12,3a1,1,0,1,0,1,1A1,1,0,0,0,12,3Z"/></g></g></svg>