<svg xmlns="http://www.w3.org/2000/svg" viewBox="0 0 22.96 32"><defs><style>.cls-1{fill:#fff;}</style></defs><title>Services</title><g id="Layer_2" data-name="Layer 2"><g id="Layer_1-2" data-name="Layer 1"><path class="cls-1" d="M17.16,5.37V1.83h-3A2.76,2.76,0,0,0,11.52,0,2.78,2.78,0,0,0,8.83,1.83H5.68V5.37Z"/><path class="cls-1" d="M19.13,1.83V7.31H3.83V1.83H0V32H23V1.83ZM11.48,28H3.83V26.17h7.65Zm0-7.54H3.83V18.63h7.65Zm0-7.55H3.83V11.09h7.65ZM16,29.64,14,27.73l1.32-1.29.62.61,1.89-1.87,1.31,1.29Zm0-7.55L14,20.19l1.32-1.29.62.61,1.89-1.87,1.31,1.29Zm0-7.54L14,12.65l1.32-1.3L16,12l1.89-1.86,1.31,1.29Z"/></g></g></svg>