<svg xmlns="http://www.w3.org/2000/svg" viewBox="0 0 27.97 32.01"><defs><style>.cls-1{fill:#fff;fill-rule:evenodd;}</style></defs><title>VDEs</title><g id="Layer_2" data-name="Layer 2"><g id="Layer_1-2" data-name="Layer 1"><path class="cls-1" d="M28,17.11s-1.44-2.46-3-2.46-3.29,2.55-3.29,2.55-1.76-2.55-3.2-2.55c-1.22,0-2.66,1.75-3.07,2.29v9.73a9.33,9.33,0,0,1-.29,2.48,4.09,4.09,0,0,1-.85,1.65,3.23,3.23,0,0,1-1.4.93,6,6,0,0,1-1.94.28,4.8,4.8,0,0,1-1.79-.31,3.51,3.51,0,0,1-1.34-.91,4,4,0,0,1-.84-1.41,5.65,5.65,0,0,1-.29-1.85v-.94H9.16a5.83,5.83,0,0,0,.3,2.49,1.59,1.59,0,0,0,1.41.67,3.88,3.88,0,0,0,1-.22,2.58,2.58,0,0,0,.6-.61,5.7,5.7,0,0,0,.29-1s.07-.78.07-1.22V16.79c-.57-.68-2-2.18-3.1-2.18-1.44,0-3.44,2.5-3.44,2.5s-1.92-2.5-3.2-2.5S0,17.11,0,17.11-.56,4,12.18,2.67L14,0l1.76,2.67C28.91,3.51,28,17.11,28,17.11Z"/></g></g></svg>