<svg xmlns="http://www.w3.org/2000/svg" viewBox="0 0 43.42 53.94"><defs><style>.cls-1{fill:#6c51d1;}</style></defs><title>projects</title><g id="Layer_2" data-name="Layer 2"><g id="Layer_1-2" data-name="Layer 1"><path class="cls-1" d="M37.73,52.36H1.59V13.3a.79.79,0,0,0-.79-.79.79.79,0,0,0-.8.79V52.62a1.33,1.33,0,0,0,1.33,1.32h36.4a.79.79,0,1,0,0-1.58Z"/><path class="cls-1" d="M43.2,7.16,36.43.24A.82.82,0,0,0,35.86,0H1.33A1.33,1.33,0,0,0,0,1.32V17.48a.8.8,0,0,0,.8.8.79.79,0,0,0,.79-.8V1.58H35.52L41.83,8V52.36H37.32a.79.79,0,1,0,0,1.58h4.77a1.32,1.32,0,0,0,1.33-1.32V7.71A.8.8,0,0,0,43.2,7.16Z"/><path class="cls-1" d="M43.2,7.16,36.43.24a.8.8,0,0,0-.87-.18.79.79,0,0,0-.5.73V7.71a.79.79,0,0,0,.8.79h6.76A.81.81,0,0,0,43.36,8,.8.8,0,0,0,43.2,7.16Zm-6.55-.24V2.74l4.09,4.18Z"/><path class="cls-1" d="M25.4,4.2H6.21A1.33,1.33,0,0,0,4.88,5.52V9.9a1.33,1.33,0,0,0,1.33,1.32H25.4A1.32,1.32,0,0,0,26.72,9.9V5.52A1.33,1.33,0,0,0,25.4,4.2Zm-.27,5.43H6.48V5.79H25.13Z"/><path class="cls-1" d="M12.84,15.36a.82.82,0,0,0-1.12.15L8.2,20.12l-1-.92A.8.8,0,0,0,6,19.27a.79.79,0,0,0,.08,1.12l1.7,1.48a.81.81,0,0,0,.52.19H8.4A.79.79,0,0,0,9,21.75l4-5.28A.8.8,0,0,0,12.84,15.36Z"/><path class="cls-1" d="M36.8,15.2h-20a.79.79,0,1,0,0,1.58h20a.79.79,0,0,0,0-1.58Z"/><path class="cls-1" d="M29.76,17.84h-13a.79.79,0,1,0,0,1.58h13a.79.79,0,1,0,0-1.58Z"/><path class="cls-1" d="M32.74,20.48h-16a.79.79,0,1,0,0,1.58h16a.79.79,0,1,0,0-1.58Z"/><path class="cls-1" d="M12.84,26.13a.81.81,0,0,0-1.12.15L8.2,30.88l-1-.92A.81.81,0,0,0,6,30a.79.79,0,0,0,.08,1.12l1.7,1.47a.77.77,0,0,0,.52.2H8.4A.83.83,0,0,0,9,32.52l4-5.28A.79.79,0,0,0,12.84,26.13Z"/><path class="cls-1" d="M36.8,26h-20a.79.79,0,1,0,0,1.58h20a.79.79,0,0,0,0-1.58Z"/><path class="cls-1" d="M29.76,28.61h-13a.79.79,0,1,0,0,1.58h13a.79.79,0,1,0,0-1.58Z"/><path class="cls-1" d="M32.74,31.25h-16a.79.79,0,1,0,0,1.58h16a.79.79,0,0,0,0-1.58Z"/><path class="cls-1" d="M36.8,36.74h-20a.79.79,0,1,0,0,1.58h20a.79.79,0,0,0,0-1.58Z"/><path class="cls-1" d="M29.76,39.38h-13a.79.79,0,1,0,0,1.58h13a.79.79,0,1,0,0-1.58Z"/><path class="cls-1" d="M32.74,42h-16a.8.8,0,1,0,0,1.59h16a.8.8,0,0,0,0-1.59Z"/><path class="cls-1" d="M11.4,36.74H7.15a1.32,1.32,0,0,0-1.32,1.32v4.22A1.32,1.32,0,0,0,7.15,43.6H11.4a1.33,1.33,0,0,0,1.33-1.32V38.06A1.33,1.33,0,0,0,11.4,36.74ZM11.13,42H7.42V38.32h3.71Z"/></g></g></svg>