<svg xmlns="http://www.w3.org/2000/svg" viewBox="0 0 62.91 40.39"><defs><style>.cls-1{fill:#0cbfa8;}</style></defs><title>users_1</title><g id="Layer_2" data-name="Layer 2"><g id="Layer_1-2" data-name="Layer 1"><path class="cls-1" d="M54.41,17.77a7.19,7.19,0,1,0-8.24,0,12.51,12.51,0,0,0-4.25,2.52,16,16,0,0,0-5.82-3.21A9.25,9.25,0,0,0,40.49,9.2a9.1,9.1,0,1,0-13.8,7.88,16.2,16.2,0,0,0-5.77,3.17,12.75,12.75,0,0,0-4.19-2.47,7.27,7.27,0,0,0-4.12-13.2,7.27,7.27,0,0,0-4.12,13.2A12.75,12.75,0,0,0,0,29.83v.83a0,0,0,0,0,.05.05H15.27a18.6,18.6,0,0,0-.13,2.13v.85a6.66,6.66,0,0,0,6.62,6.7H41.05a6.66,6.66,0,0,0,6.62-6.7v-.85a18.6,18.6,0,0,0-.13-2.13H62.86a.05.05,0,0,0,0-.05v-.83A12.8,12.8,0,0,0,54.41,17.77ZM45.1,11.82a5.19,5.19,0,1,1,5.29,5.25h-.2A5.21,5.21,0,0,1,45.1,11.82ZM24.26,9.2a7.11,7.11,0,1,1,7.52,7.18H31A7.17,7.17,0,0,1,24.26,9.2ZM7.38,11.82a5.19,5.19,0,1,1,5.29,5.25h-.2A5.22,5.22,0,0,1,7.38,11.82Zm8.24,16.86H2a10.68,10.68,0,0,1,10.48-9.6h.15a10.4,10.4,0,0,1,6.78,2.56A16.67,16.67,0,0,0,15.62,28.68Zm30,5A4.67,4.67,0,0,1,41,38.38H21.73a4.67,4.67,0,0,1-4.63-4.69v-.85A14.39,14.39,0,0,1,31,18.4h.84A14.39,14.39,0,0,1,45.66,32.84Zm1.48-5a16.58,16.58,0,0,0-3.77-7,10.53,10.53,0,0,1,6.84-2.61h.15a10.68,10.68,0,0,1,10.48,9.6Z"/></g></g></svg>