<svg xmlns="http://www.w3.org/2000/svg" viewBox="0 0 42.45 42.43"><defs><style>.cls-1{fill:#1398ec;}</style></defs><title>hdd</title><g id="Layer_2" data-name="Layer 2"><g id="Layer_1-2" data-name="Layer 1"><path class="cls-1" d="M5,39.6a2.12,2.12,0,1,0-2.12-2.12A2.12,2.12,0,0,0,5,39.6Zm0-2.83a.71.71,0,1,1-.71.71A.71.71,0,0,1,5,36.77Z"/><path class="cls-1" d="M9.2,38.19h7.07a.71.71,0,1,0,0-1.42H9.2a.71.71,0,1,0,0,1.42Z"/><path class="cls-1" d="M31.83,39.6a.7.7,0,0,0,.71-.7V36.07a.71.71,0,0,0-.71-.71.7.7,0,0,0-.7.71V38.9A.7.7,0,0,0,31.83,39.6Z"/><path class="cls-1" d="M29,39.6a.7.7,0,0,0,.71-.7V36.07a.71.71,0,0,0-.71-.71.7.7,0,0,0-.7.71V38.9A.7.7,0,0,0,29,39.6Z"/><path class="cls-1" d="M26.17,39.6a.7.7,0,0,0,.71-.7V36.07a.71.71,0,0,0-.71-.71.7.7,0,0,0-.7.71V38.9A.7.7,0,0,0,26.17,39.6Z"/><path class="cls-1" d="M23.34,39.6a.7.7,0,0,0,.71-.7V36.07a.71.71,0,0,0-.71-.71.7.7,0,0,0-.7.71V38.9A.7.7,0,0,0,23.34,39.6Z"/><path class="cls-1" d="M20.51,39.6a.7.7,0,0,0,.71-.7V36.07a.71.71,0,1,0-1.41,0V38.9A.7.7,0,0,0,20.51,39.6Z"/><path class="cls-1" d="M38.19,6.72a7.06,7.06,0,0,0-6-6.64A.65.65,0,0,0,31.83,0h-.7a7.1,7.1,0,0,0-4.24,1.41H3.54a.71.71,0,0,0-.71.65L0,33.17v8.56a.7.7,0,0,0,.71.7H34.66a.7.7,0,0,0,.71-.7V33.18L34.14,19.09h1.94A6.36,6.36,0,0,0,38.19,6.72Zm-34-3.89H25.47l0,.07c-.11.15-.21.3-.31.46l-.1.17a3.84,3.84,0,0,0-.21.4l-.09.2a3.79,3.79,0,0,0-.18.42,1.34,1.34,0,0,0-.07.18,6.36,6.36,0,0,0-.19.62A6.89,6.89,0,0,0,21.93,5a7.07,7.07,0,0,0,0,14.14H32.72l1.17,13.44H1.49ZM34,41H1.41V34H34Zm2.12-23.34H21.93A5.66,5.66,0,1,1,24.48,7a.7.7,0,0,0,.95-.31.51.51,0,0,0,.07-.24,4.34,4.34,0,0,1,.09-.52,5.67,5.67,0,0,1,5.54-4.49c.2,0,.4,0,.61,0h0a5.63,5.63,0,0,1,5,5.62v.09a.71.71,0,0,0,.53.77,5,5,0,0,1-1.23,9.75Z"/></g></g></svg>