<svg xmlns="http://www.w3.org/2000/svg" viewBox="0 0 33.96 20.47"><defs><style>.cls-1{fill:#6c51d1;}</style></defs><title>ram</title><g id="Layer_2" data-name="Layer 2"><g id="Layer_1-2" data-name="Layer 1"><path class="cls-1" d="M33.38,0H24.05a.58.58,0,1,0,0,1.16h8.74V13.92H1.17V1.16H27.09a.58.58,0,0,0,0-1.16H.59A.58.58,0,0,0,0,.58V14.5a.58.58,0,0,0,.59.58H1.77v4.81a.58.58,0,0,0,.58.58H31.61a.58.58,0,0,0,.58-.58V16.32a.59.59,0,0,0-1.17,0v3H30V16.64a.59.59,0,0,0-1.17,0v2.67H27.5V16.64a.59.59,0,0,0-1.17,0v2.67H25V16.64a.59.59,0,0,0-1.17,0v2.67H22.54V16.64a.59.59,0,0,0-1.17,0v2.67H20.06V16.64a.59.59,0,0,0-1.17,0v2.67H17.58V16.64a.59.59,0,0,0-1.17,0v2.67H15.1V16.64a.59.59,0,0,0-1.17,0v2.67H12.62V16.64a.59.59,0,0,0-.59-.58.58.58,0,0,0-.58.58v2.67H10.14V16.64a.59.59,0,0,0-.59-.58.58.58,0,0,0-.58.58v2.67H7.66V16.64a.59.59,0,0,0-.59-.58.58.58,0,0,0-.58.58v2.67H5.17V16.64a.58.58,0,0,0-.58-.58.59.59,0,0,0-.59.58v2.67H2.94V15.08H33.38A.58.58,0,0,0,34,14.5V.58A.58.58,0,0,0,33.38,0Z"/><path class="cls-1" d="M4,3.6H7.27a.47.47,0,0,1,.48.47.59.59,0,0,0,1.17,0V4A1.65,1.65,0,0,0,7.27,2.44H4A1.63,1.63,0,0,0,2.37,4.07V11A1.63,1.63,0,0,0,4,12.64H7.27A1.64,1.64,0,0,0,8.92,11V4.46a.59.59,0,0,0-1.17,0V11a.47.47,0,0,1-.48.47H4A.47.47,0,0,1,3.54,11V4.07A.47.47,0,0,1,4,3.6Z"/><path class="cls-1" d="M15,2.44H11.73a1.64,1.64,0,0,0-1.65,1.63V11a1.64,1.64,0,0,0,1.65,1.63H15A1.63,1.63,0,0,0,16.63,11V4.07A1.63,1.63,0,0,0,15,2.44ZM15.46,11a.47.47,0,0,1-.47.47H11.73a.47.47,0,0,1-.48-.47V4.07a.47.47,0,0,1,.48-.47H15a.47.47,0,0,1,.47.47Z"/><path class="cls-1" d="M29.75,2.44H26.49a1.64,1.64,0,0,0-1.65,1.63V11a1.64,1.64,0,0,0,1.65,1.63h3.26A1.63,1.63,0,0,0,31.39,11V4.07A1.63,1.63,0,0,0,29.75,2.44ZM30.22,11a.47.47,0,0,1-.47.47H26.49A.48.48,0,0,1,26,11V4.07a.48.48,0,0,1,.48-.47h3.26a.47.47,0,0,1,.47.47V11Z"/></g></g></svg>