<svg xmlns="http://www.w3.org/2000/svg" viewBox="0 0 63.88 64"><defs><style>.cls-1{fill:#ea1515;}</style></defs><title>Asset 1</title><g id="Layer_2" data-name="Layer 2"><g id="Layer_1-2" data-name="Layer 1"><path class="cls-1" d="M31.94,0A32,32,0,1,0,63.88,32,31.88,31.88,0,0,0,31.94,0Zm2.9,49.45a1.37,1.37,0,0,1-1.45,1.46h-2.9A1.37,1.37,0,0,1,29,49.45v-2.9a1.37,1.37,0,0,1,1.45-1.46h2.9a1.37,1.37,0,0,1,1.45,1.46Zm3.92-12.94c-2,1.74-3.48,2.91-3.92,4.51a1.4,1.4,0,0,1-1.45,1.16h-2.9A1.41,1.41,0,0,1,29,40.58c.58-4.22,3.63-6.54,6.09-8.58,2.62-2,4.07-3.35,4.07-5.82a7.26,7.26,0,1,0-14.52,0v.87a1.33,1.33,0,0,1-1,1.6l-2.75.88A1.45,1.45,0,0,1,19,28.36a10.62,10.62,0,0,1-.15-2.18,13.07,13.07,0,1,1,26.14,0C45,31.56,41.52,34.33,38.76,36.51Z"/></g></g></svg>